<?xml version="1.0" encoding="utf-8"?>
<!-- Generator: Adobe Illustrator 15.1.0, SVG Export Plug-In . SVG Version: 6.00 Build 0)  -->
<!DOCTYPE svg PUBLIC "-//W3C//DTD SVG 1.1//EN" "http://www.w3.org/Graphics/SVG/1.1/DTD/svg11.dtd">
<svg version="1.1" xmlns="http://www.w3.org/2000/svg" xmlns:xlink="http://www.w3.org/1999/xlink" x="0px" y="0px" width="30px"
	 height="30px" viewBox="0 0 30 30" enable-background="new 0 0 30 30" xml:space="preserve">
<g id="Ebene_1">
	<g>
		<g>
			<path d="M1.533,2.435c8.818,8.818,17.636,17.636,26.453,26.454c0.456,0.456,1.163-0.251,0.707-0.707
				C19.876,19.363,11.058,10.546,2.24,1.728C1.784,1.271,1.077,1.979,1.533,2.435L1.533,2.435z"/>
		</g>
	</g>
</g>
<g id="Ebene_2">
	<g>
		<g>
			<path d="M2.24,28.889c8.818-8.817,17.636-17.636,26.453-26.454c0.456-0.457-0.251-1.164-0.707-0.707
				c-8.817,8.818-17.635,17.635-26.453,26.454C1.077,28.638,1.784,29.345,2.24,28.889L2.24,28.889z"/>
		</g>
	</g>
</g>
</svg>
