<?xml version="1.0" encoding="utf-8"?>
<!-- Generator: Adobe Illustrator 15.1.0, SVG Export Plug-In . SVG Version: 6.00 Build 0)  -->
<!DOCTYPE svg PUBLIC "-//W3C//DTD SVG 1.1//EN" "http://www.w3.org/Graphics/SVG/1.1/DTD/svg11.dtd">
<svg version="1.1" id="Ebene_1" xmlns="http://www.w3.org/2000/svg" xmlns:xlink="http://www.w3.org/1999/xlink" x="0px" y="0px"
	 width="200px" height="100px" viewBox="0 0 200 100" enable-background="new 0 0 200 100" xml:space="preserve">
<g>
	<path d="M24.814,47.796V62.63H21.55V29.747h14.257v3.264H24.814v11.521h10.993v3.264H24.814z"/>
	<path d="M58.08,57.877H42.622l-1.776,4.753h-3.504l13.009-33.891L63.36,62.63h-3.504L58.08,57.877z M43.678,55.189h13.345
		l-6.673-17.666L43.678,55.189z"/>
	<path d="M94.944,58.31c-3.072,3.072-7.345,4.992-12.097,4.992c-9.457,0-17.137-7.632-17.137-17.089
		c0-9.457,7.681-17.137,17.137-17.137c4.752,0,9.025,1.92,12.097,5.04l-2.352,2.353c-2.497-2.497-5.953-4.033-9.745-4.033
		c-7.584,0-13.729,6.193-13.729,13.777s6.145,13.729,13.729,13.729c3.792,0,7.249-1.536,9.745-4.032L94.944,58.31z"/>
	<path d="M107.086,33.011V62.63h-3.264V33.011h-7.105v-3.264h17.521v3.264H107.086z"/>
	<path d="M150.335,62.63V38.724l-7.2,9.745l-7.201-9.745V62.63h-3.264V28.835l10.465,14.209L153.6,28.835V62.63H150.335z"/>
	<path d="M163.197,62.63V29.747h14.257v3.264h-10.993v11.521h10.993v3.264h-10.993v11.569h10.993v3.265H163.197z"/>
</g>
</svg>
